<?xml version="1.0" standalone="no"?>
<!DOCTYPE svg PUBLIC "-//W3C//DTD SVG 1.0//EN" "http://www.w3.org/TR/2001/REC-SVG-20010904/DTD/svg10.dtd">
<svg xmlns="http://www.w3.org/2000/svg" xmlns:xlink="http://www.w3.org/1999/xlink" id="body_1" width="26" height="26">

<g transform="matrix(0.03262233 0 0 0.03262233 0 0)">
	<g transform="matrix(1.000089 0 0 1.00009 0 -3.052034E-05)">
	</g>
    <path transform="matrix(1.000089 0 0 1.00009 0 -3.052034E-05)"  d="M179.162 603.989C 179.162 573.507 153.914 548.801 122.729 548.801C 91.57401 548.801 66.29501 573.506 66.29501 603.989C 66.29501 634.473 91.57401 659.179 122.729 659.179C 153.914 659.18 179.162 634.474 179.162 603.989z" stroke="none" fill="#000000" fill-rule="nonzero" />
	<g transform="matrix(1.000089 0 0 1.00009 0 -3.052034E-05)">
	</g>
    <path transform="matrix(1.000089 0 0 1.00009 0 -3.052034E-05)"  d="M328.125 610.54C 328.125 580.061 302.853 555.351 271.692 555.351C 240.506 555.351 215.259 580.062 215.259 610.54C 215.259 641.025 240.506 665.73 271.692 665.73C 302.851 665.731 328.125 641.026 328.125 610.54z" stroke="none" fill="#000000" fill-rule="nonzero" />
	<g transform="matrix(1.000089 0 0 1.00009 0 -3.052034E-05)">
	</g>
    <path transform="matrix(1.000089 0 0 1.00009 0 -3.052034E-05)"  d="M703.105 603.989C 703.105 573.507 677.842 548.801 646.671 548.801C 615.501 548.801 590.2369 573.506 590.2369 603.989C 590.2369 634.473 615.5009 659.179 646.671 659.179C 677.843 659.18 703.105 634.474 703.105 603.989z" stroke="none" fill="#000000" fill-rule="nonzero" />
	<g transform="matrix(1.000089 0 0 1.00009 0 -3.052034E-05)">
	</g>
    <path transform="matrix(1.000089 0 0 1.00009 0 -3.052034E-05)"  d="M493.637 345.899C 493.637 345.899 462.879 467.699 445.292 478.156L445.292 478.156L493.637 478.156L493.637 345.899z" stroke="none" fill="#000000" fill-rule="nonzero" />
	<g transform="matrix(1.000089 0 0 1.00009 0 -3.052034E-05)">
	</g>
    <path transform="matrix(1.000089 0 0 1.00009 0 -3.052034E-05)"  d="M6.146 412.571L6.146 476.556L141.848 476.556L66.486 412.571L6.146 412.571" stroke="none" fill="#000000" fill-rule="nonzero" />
	<g transform="matrix(1.000089 0 0 1.00009 0 -3.052034E-05)">
	</g>
    <path transform="matrix(1.000089 0 0 1.00009 0 -3.052034E-05)"  d="M466.531 214.073C 466.531 214.073 297.73 73.483 42.16202 158.531C 42.16202 158.531 -19.22398 202.79 6.144016 331.665C 6.144016 331.665 106.718 448.759 246.726 472.405L246.726 472.405L253.823 476.555L431.008 476.555C 431.008 476.555 485.45 401.151 486.946 290.247C 486.947 290.248 488.025 245.315 466.531 214.073z" stroke="none" fill="#000000" fill-rule="nonzero" />
	<g transform="matrix(1.000089 0 0 1.00009 0 -3.052034E-05)">
	</g>
    <path transform="matrix(1.000089 0 0 1.00009 0 -3.052034E-05)"  d="M781.245 492.198L781.245 360.575L781.246 360.575C 781.246 335.347 768.608 313.174 749.34 299.244C 736.361 289.88 720.476 284.142 703.1069 284.142L703.1069 284.142L601.353 284.142L570.894 284.142L563.012 284.142L563.012 492.2L539.547 492.2L539.547 300.551L506.859 300.551L506.859 492.198L1.221 492.198L1.221 588.052L33.877 588.052C 41.562 546.843 78.377 515.577 122.731 515.577L122.731 515.577L271.694 515.577C 316.048 515.577 352.864 546.843 360.548 588.052L360.548 588.052L557.819 588.052C 565.507 546.843 602.3069 515.577 646.673 515.577C 691.039 515.577 727.844 546.843 735.527 588.052L735.527 588.052L796.928 588.052L796.928 492.198L781.245 492.198zM632.354 436.097L590.239 436.097L590.239 313.318L632.354 313.318L632.354 436.097zM646.67 436.086L646.67 313.318L703.104 313.318C 703.104 313.318 747.278 317.141 747.278 351.651L747.278 351.651L747.28 436.088L646.67 436.086z" stroke="none" fill="#000000" fill-rule="nonzero" />
</g>
</svg>