<?xml version="1.0" standalone="no"?>
<!DOCTYPE svg PUBLIC "-//W3C//DTD SVG 1.0//EN" "http://www.w3.org/TR/2001/REC-SVG-20010904/DTD/svg10.dtd">
<svg xmlns="http://www.w3.org/2000/svg" xmlns:xlink="http://www.w3.org/1999/xlink" id="body_1" width="26" height="26">

<g transform="matrix(0.05078125 0 0 0.05078125 0 0)">
	<g transform="matrix(1 0 0 1 0 0)">
	</g>
    <path transform="matrix(1 0 0 1 0 0)"  d="M32 0L32 512" stroke="#B35047" stroke-width="1" fill="#000000" fill-rule="nonzero" />
	<g transform="matrix(1 0 0 1 0 0)">
	</g>
    <path transform="matrix(1 0 0 1 0 0)"  d="M64 0L64 512" stroke="#B35047" stroke-width="1" fill="#000000" fill-rule="nonzero" />
	<g transform="matrix(1 0 0 1 0 0)">
	</g>
    <path transform="matrix(1 0 0 1 0 0)"  d="M96 0L96 512" stroke="#B35047" stroke-width="1" fill="#000000" fill-rule="nonzero" />
	<g transform="matrix(1 0 0 1 0 0)">
	</g>
    <path transform="matrix(1 0 0 1 0 0)"  d="M128 0L128 512" stroke="#B35047" stroke-width="1" fill="#000000" fill-rule="nonzero" />
	<g transform="matrix(1 0 0 1 0 0)">
	</g>
    <path transform="matrix(1 0 0 1 0 0)"  d="M160 0L160 512" stroke="#B35047" stroke-width="1" fill="#000000" fill-rule="nonzero" />
	<g transform="matrix(1 0 0 1 0 0)">
	</g>
    <path transform="matrix(1 0 0 1 0 0)"  d="M192 0L192 512" stroke="#B35047" stroke-width="1" fill="#000000" fill-rule="nonzero" />
	<g transform="matrix(1 0 0 1 0 0)">
	</g>
    <path transform="matrix(1 0 0 1 0 0)"  d="M224 0L224 512" stroke="#B35047" stroke-width="1" fill="#000000" fill-rule="nonzero" />
	<g transform="matrix(1 0 0 1 0 0)">
	</g>
    <path transform="matrix(1 0 0 1 0 0)"  d="M256 0L256 512" stroke="#B35047" stroke-width="1" fill="#000000" fill-rule="nonzero" />
	<g transform="matrix(1 0 0 1 0 0)">
	</g>
    <path transform="matrix(1 0 0 1 0 0)"  d="M288 0L288 512" stroke="#B35047" stroke-width="1" fill="#000000" fill-rule="nonzero" />
	<g transform="matrix(1 0 0 1 0 0)">
	</g>
    <path transform="matrix(1 0 0 1 0 0)"  d="M320 0L320 512" stroke="#B35047" stroke-width="1" fill="#000000" fill-rule="nonzero" />
	<g transform="matrix(1 0 0 1 0 0)">
	</g>
    <path transform="matrix(1 0 0 1 0 0)"  d="M352 0L352 512" stroke="#B35047" stroke-width="1" fill="#000000" fill-rule="nonzero" />
	<g transform="matrix(1 0 0 1 0 0)">
	</g>
    <path transform="matrix(1 0 0 1 0 0)"  d="M384 0L384 512" stroke="#B35047" stroke-width="1" fill="#000000" fill-rule="nonzero" />
	<g transform="matrix(1 0 0 1 0 0)">
	</g>
    <path transform="matrix(1 0 0 1 0 0)"  d="M416 0L416 512" stroke="#B35047" stroke-width="1" fill="#000000" fill-rule="nonzero" />
	<g transform="matrix(1 0 0 1 0 0)">
	</g>
    <path transform="matrix(1 0 0 1 0 0)"  d="M448 0L448 512" stroke="#B35047" stroke-width="1" fill="#000000" fill-rule="nonzero" />
	<g transform="matrix(1 0 0 1 0 0)">
	</g>
    <path transform="matrix(1 0 0 1 0 0)"  d="M480 0L480 512" stroke="#B35047" stroke-width="1" fill="#000000" fill-rule="nonzero" />
	<g transform="matrix(1 0 0 1 0 0)">
	</g>
    <path transform="matrix(1 0 0 1 0 0)"  d="M0 32L512 32" stroke="#B35047" stroke-width="1" fill="#000000" fill-rule="nonzero" />
	<g transform="matrix(1 0 0 1 0 0)">
	</g>
    <path transform="matrix(1 0 0 1 0 0)"  d="M0 64L512 64" stroke="#B35047" stroke-width="1" fill="#000000" fill-rule="nonzero" />
	<g transform="matrix(1 0 0 1 0 0)">
	</g>
    <path transform="matrix(1 0 0 1 0 0)"  d="M0 96L512 96" stroke="#B35047" stroke-width="1" fill="#000000" fill-rule="nonzero" />
	<g transform="matrix(1 0 0 1 0 0)">
	</g>
    <path transform="matrix(1 0 0 1 0 0)"  d="M0 128L512 128" stroke="#B35047" stroke-width="1" fill="#000000" fill-rule="nonzero" />
	<g transform="matrix(1 0 0 1 0 0)">
	</g>
    <path transform="matrix(1 0 0 1 0 0)"  d="M0 160L512 160" stroke="#B35047" stroke-width="1" fill="#000000" fill-rule="nonzero" />
	<g transform="matrix(1 0 0 1 0 0)">
	</g>
    <path transform="matrix(1 0 0 1 0 0)"  d="M0 192L512 192" stroke="#B35047" stroke-width="1" fill="#000000" fill-rule="nonzero" />
	<g transform="matrix(1 0 0 1 0 0)">
	</g>
    <path transform="matrix(1 0 0 1 0 0)"  d="M0 224L512 224" stroke="#B35047" stroke-width="1" fill="#000000" fill-rule="nonzero" />
	<g transform="matrix(1 0 0 1 0 0)">
	</g>
    <path transform="matrix(1 0 0 1 0 0)"  d="M0 256L512 256" stroke="#B35047" stroke-width="1" fill="#000000" fill-rule="nonzero" />
	<g transform="matrix(1 0 0 1 0 0)">
	</g>
    <path transform="matrix(1 0 0 1 0 0)"  d="M0 288L512 288" stroke="#B35047" stroke-width="1" fill="#000000" fill-rule="nonzero" />
	<g transform="matrix(1 0 0 1 0 0)">
	</g>
    <path transform="matrix(1 0 0 1 0 0)"  d="M0 320L512 320" stroke="#B35047" stroke-width="1" fill="#000000" fill-rule="nonzero" />
	<g transform="matrix(1 0 0 1 0 0)">
	</g>
    <path transform="matrix(1 0 0 1 0 0)"  d="M0 352L512 352" stroke="#B35047" stroke-width="1" fill="#000000" fill-rule="nonzero" />
	<g transform="matrix(1 0 0 1 0 0)">
	</g>
    <path transform="matrix(1 0 0 1 0 0)"  d="M0 384L512 384" stroke="#B35047" stroke-width="1" fill="#000000" fill-rule="nonzero" />
	<g transform="matrix(1 0 0 1 0 0)">
	</g>
    <path transform="matrix(1 0 0 1 0 0)"  d="M0 416L512 416" stroke="#B35047" stroke-width="1" fill="#000000" fill-rule="nonzero" />
	<g transform="matrix(1 0 0 1 0 0)">
	</g>
    <path transform="matrix(1 0 0 1 0 0)"  d="M0 448L512 448" stroke="#B35047" stroke-width="1" fill="#000000" fill-rule="nonzero" />
	<g transform="matrix(1 0 0 1 0 0)">
	</g>
    <path transform="matrix(1 0 0 1 0 0)"  d="M0 480L512 480" stroke="#B35047" stroke-width="1" fill="#000000" fill-rule="nonzero" />
	<g transform="matrix(1 0 0 1 0 0)">
	</g>
    <path transform="matrix(1 0 0 1 0 0)"  d="M0 0L512 0L512 512L0 512L0 0z" stroke="#B35047" stroke-width="1" fill="none" />
	<g transform="matrix(1 0 0 1 0 0)">
	</g>
    <path transform="matrix(1 0 0 1 0 0)"  d="M144 128L16 256L144 384L208 384L80 256L208 128L144 128zM368 128L304 128L432 256L304 384L368 384L496 256L368 128z" stroke="none" fill="#000000" fill-rule="nonzero" />
</g>
</svg>