<?xml version="1.0" standalone="no"?>
<!DOCTYPE svg PUBLIC "-//W3C//DTD SVG 1.0//EN" "http://www.w3.org/TR/2001/REC-SVG-20010904/DTD/svg10.dtd">
<svg xmlns="http://www.w3.org/2000/svg" xmlns:xlink="http://www.w3.org/1999/xlink" id="body_1" width="26" height="26">

<g transform="matrix(0.07624634 0 0 0.07624634 0 0)">
	<g transform="matrix(0.1332031 0 0 -0.1332031 0 340.9999)">
	</g>
    <path transform="matrix(0.1332031 0 0 -0.1332031 0 340.9999)"  d="M80 1637L80 795L347 630C 493 539 619 461 627 457C 638 450 640 583 638 1292L638 1292L635 2134L430 2262C 317 2332 192 2410 153 2435L153 2435L80 2480L80 1637z" stroke="none" fill="#000000" fill-rule="nonzero" />
	<g transform="matrix(0.1332031 0 0 -0.1332031 0 340.9999)">
	</g>
    <path transform="matrix(0.1332031 0 0 -0.1332031 0 340.9999)"  d="M1073 2278L800 2128L800 1289C 800 827 802 450 804 450C 807 450 933 518 1084 601L1084 601L1360 753L1360 1591C 1360 2053 1357 2430 1353 2429C 1348 2429 1222 2361 1073 2278z" stroke="none" fill="#000000" fill-rule="nonzero" />
	<g transform="matrix(0.1332031 0 0 -0.1332031 0 340.9999)">
	</g>
    <path transform="matrix(0.1332031 0 0 -0.1332031 0 340.9999)"  d="M1521 1693C 1522 1034 1523 961 1536 1014C 1596 1261 1845 1452 2093 1438L2093 1438L2160 1434L2160 1760L2160 2085L1849 2255C 1679 2349 1535 2427 1530 2428C 1523 2430 1520 2165 1521 1693z" stroke="none" fill="#000000" fill-rule="nonzero" />
	<g transform="matrix(0.1332031 0 0 -0.1332031 0 340.9999)">
	</g>
    <path transform="matrix(0.1332031 0 0 -0.1332031 0 340.9999)"  d="M1980 1266C 1803 1217 1680 1056 1680 875C 1680 765 1745 572 1831 426C 1884 337 1996 178 2044 125L2044 125L2080 85L2116 125C 2168 183 2280 342 2333 436C 2420 587 2480 766 2480 875C 2480 1136 2226 1334 1980 1266zM2135 935C 2185 886 2150 800 2080 800C 2061 800 2040 809 2025 825C 2009 840 2000 861 2000 880C 2000 899 2009 920 2025 935C 2040 951 2061 960 2080 960C 2099 960 2120 951 2135 935z" stroke="none" fill="#000000" fill-rule="nonzero" />
</g>
</svg>